<?xml version="1.0" standalone="no"?>
<!DOCTYPE svg PUBLIC "-//W3C//DTD SVG 20010904//EN"
 "http://www.w3.org/TR/2001/REC-SVG-20010904/DTD/svg10.dtd">
<svg version="1.0" xmlns="http://www.w3.org/2000/svg"
 width="24.000000pt" height="24.000000pt" viewBox="0 0 24.000000 24.000000"
 preserveAspectRatio="xMidYMid meet">
<metadata>
Created by potrace 1.16, written by Peter Selinger 2001-2019
</metadata>
<g transform="translate(0.000000,24.000000) scale(0.001500,-0.001500)"
fill="#000000" stroke="none">
<path d="M7570 13969 c-275 -36 -520 -156 -716 -353 -158 -158 -262 -334 -314
-535 -149 -568 161 -1155 725 -1371 l60 -23 1 -393 0 -394 -35 0 c-20 0 -281
-5 -581 -10 -300 -5 -824 -14 -1165 -20 -341 -6 -966 -17 -1390 -25 -423 -8
-802 -15 -841 -15 l-71 0 -8 138 c-16 312 -78 562 -161 649 -46 49 -71 53
-109 21 -21 -18 -29 -39 -40 -103 -10 -63 -35 -379 -35 -464 0 -9 -12 4 -26
29 -95 162 -237 375 -283 423 -67 71 -124 84 -137 30 -11 -43 5 -239 30 -367
22 -109 78 -275 146 -433 l22 -52 -55 -62 c-224 -247 -237 -623 -29 -841 91
-96 243 -158 351 -143 25 3 359 10 741 15 382 4 947 13 1255 19 308 6 755 14
994 17 l434 7 -7 -79 c-6 -76 13 -1210 34 -1989 6 -203 12 -869 15 -1480 22
-5376 22 -5530 10 -5606 -7 -46 -7 -47 -53 -53 -69 -9 -129 -42 -140 -76 -31
-88 63 -172 223 -200 63 -11 423 -21 895 -24 148 -1 157 0 199 24 71 39 86 75
86 200 0 70 -6 128 -19 175 -18 69 -18 79 3 495 12 234 31 614 41 845 30 627
48 1013 70 1485 34 722 40 855 55 1170 8 168 17 359 20 425 8 184 34 754 50
1115 9 179 18 335 21 348 6 21 12 22 95 22 l88 0 5 -32 c3 -18 10 -89 16 -158
23 -283 69 -795 125 -1385 33 -354 92 -983 105 -1130 21 -232 70 -737 160
-1660 11 -110 27 -274 35 -365 9 -91 24 -255 35 -365 11 -110 26 -274 35 -365
8 -91 17 -187 20 -213 5 -39 2 -54 -16 -78 -12 -17 -39 -70 -60 -117 -42 -94
-46 -131 -29 -237 11 -73 46 -108 122 -124 64 -14 574 -14 675 0 43 6 123 25
178 43 55 19 127 38 160 45 70 13 179 65 200 95 23 32 18 74 -11 101 -15 14
-32 25 -38 25 -6 0 -27 11 -47 24 l-36 25 -7 173 c-3 95 -11 328 -16 518 -5
190 -14 509 -20 710 -6 201 -15 536 -20 745 -6 209 -17 598 -25 865 -8 267
-21 737 -30 1045 -30 1076 -60 2000 -75 2280 -13 244 -16 368 -35 1245 -18
879 -34 1439 -42 1501 l-5 47 103 6 c57 3 487 12 954 21 869 16 2074 40 2473
50 186 4 224 3 228 -9 11 -28 62 -39 157 -33 310 19 556 261 575 563 10 166
-61 348 -183 469 -119 120 -252 175 -420 175 l-90 0 0 238 c0 272 -3 288 -73
358 -82 82 -145 93 -182 31 -17 -28 -20 -51 -20 -177 -1 -104 -6 -169 -20
-230 -10 -47 -26 -122 -36 -166 l-18 -82 -271 -6 c-317 -7 -1386 -22 -3657
-52 -515 -7 -528 -7 -528 12 0 10 -5 100 -10 199 -5 99 -12 234 -15 300 -7
159 -15 272 -21 315 -5 35 -4 36 83 95 272 184 457 471 509 795 72 442 -152
917 -543 1153 -173 104 -311 148 -539 172 -156 16 -168 17 -264 4z"/>
</g>
</svg>
